<svg width="708" height="125" viewBox="0 0 708 125" fill="none" xmlns="http://www.w3.org/2000/svg">
<path d="M0 122.193H44.0551C77.8733 122.193 92.8629 110.141 92.8629 85.4797C92.8629 73.2418 85.9165 64.1561 72.7548 59.5206C83.1745 54.6996 88.8413 46.3556 88.8413 33.376C88.8413 12.9796 73.3032 2.41049 41.4958 2.41049H0V122.193ZM34.3666 81.5858C34.3666 75.8378 38.3882 71.573 43.8723 71.573C49.3563 71.573 53.3779 75.8378 53.3779 81.5858C53.3779 87.1485 49.3563 91.2278 43.8723 91.2278C38.3882 91.2278 34.3666 87.1485 34.3666 81.5858ZM35.6462 39.3095C35.6462 34.4886 39.1194 30.9655 43.8723 30.9655C48.6251 30.9655 52.0983 34.4886 52.0983 39.3095C52.0983 44.3159 48.6251 48.0244 43.8723 48.0244C39.1194 48.0244 35.6462 44.3159 35.6462 39.3095Z" fill="black"/>
<path d="M145.394 124.604C180.309 124.604 196.03 103.651 196.03 61.5602C196.03 22.807 180.492 0 145.394 0C111.393 0 96.0377 22.9924 95.8549 62.4873C96.0377 104.207 111.393 124.604 145.394 124.604ZM137.168 62.1165C137.168 43.9451 138.63 39.495 145.942 39.495C153.254 39.495 154.717 43.9451 154.717 62.1165C154.717 80.2879 153.254 84.9234 145.942 84.9234C138.63 84.9234 137.168 80.2879 137.168 62.1165Z" fill="black"/>
<path d="M201.545 122.193H238.471L237.192 74.169H237.74L248.708 100.128L258.031 122.379H292.763V2.59591H255.837C256.386 15.7609 256.751 27.0717 257.117 52.4745H256.568L247.246 27.0717L238.106 2.41049H201.545V122.193Z" fill="black"/>
<path d="M298.658 122.193H373.79V84.5526H337.778V73.0564H371.413V50.2495H337.778V39.6804H373.241V2.41049H298.658V122.193Z" fill="black"/>
<path d="M379.705 122.193H418.093C445.331 122.193 455.933 108.658 455.933 91.7841C455.933 76.5794 452.277 69.7188 439.298 55.6267C433.266 49.1369 428.696 44.1305 425.04 39.6804H431.986H453.739V2.41049H419.373C395.609 2.41049 379.522 9.82739 379.522 32.6343C379.522 47.839 387.383 58.2226 397.254 68.4208C403.835 75.2815 408.588 80.2879 412.426 84.5526H399.082H379.705V122.193Z" fill="black"/>
<path d="M554.271 122.75C557.745 122.75 562.68 122.193 564.326 122.008V84.5526C562.863 84.738 559.024 85.1089 556.099 85.1089C542.024 85.1089 534.895 77.8774 534.895 61.7456C534.895 46.3556 542.207 39.495 556.831 39.495C559.207 39.495 562.498 39.6804 564.143 39.8658V2.59591C562.132 2.41049 556.648 2.22507 554.637 2.22507C512.958 2.22507 493.947 23.1778 493.947 61.7456C493.947 100.313 512.593 122.75 554.271 122.75Z" fill="black"/>
<path d="M617.035 124.604C651.95 124.604 667.671 103.651 667.671 61.5602C667.671 22.807 652.133 0 617.035 0C583.034 0 567.679 22.9924 567.496 62.4873C567.679 104.207 583.034 124.604 617.035 124.604ZM608.809 62.1165C608.809 43.9451 610.271 39.495 617.583 39.495C624.896 39.495 626.358 43.9451 626.358 62.1165C626.358 80.2879 624.896 84.9234 617.583 84.9234C610.271 84.9234 608.809 80.2879 608.809 62.1165Z" fill="black"/>
<path d="M669.612 122.193H708V83.9963H669.612V122.193Z" fill="black"/>
</svg>
